<svg width="358" height="81" viewBox="0 0 358.10 81.00" xmlns="http://www.w3.org/2000/svg">
  <!-- Theria wordmark: real Herculanum letterforms (extracted via CoreText),
       filled with the icon's savanna->jungle gradient. SVG because GitHub
       strips custom fonts from README HTML. -->
  <defs>
    <linearGradient id="wm" x1="0" y1="0" x2="1" y2="0">
      <stop offset="0"   stop-color="#fbbf24"/>
      <stop offset="0.5" stop-color="#34d399"/>
      <stop offset="1"   stop-color="#22d3ee"/>
    </linearGradient>
  </defs>
  <g transform="translate(8.00,8.00)" fill="url(#wm)">
    <path d="M6.20 11.60 L17.60 11.60 Q18.10 16.10 18.20 20.40 Q18.30 24.70 18.30 29.20 Q18.30 34.50 18.05 38.30 Q17.80 42.10 17.55 44.70 Q17.30 47.30 17.05 48.90 Q16.80 50.50 16.80 51.50 Q16.80 53.30 17.70 55.35 Q18.60 57.40 20.30 59.15 Q22.00 60.90 24.35 62.00 Q26.70 63.10 29.70 63.10 Q31.20 63.10 33.15 62.40 Q35.10 61.70 36.20 60.90 Q37.10 60.10 37.10 58.60 Q37.10 58.00 36.95 57.25 Q36.80 56.50 36.10 56.50 Q35.60 56.50 34.55 56.65 Q33.50 56.80 32.80 56.80 Q30.20 56.80 28.50 56.00 Q26.80 55.20 25.85 53.95 Q24.90 52.70 24.50 51.15 Q24.10 49.60 24.10 48.00 Q24.10 40.90 24.25 35.35 Q24.40 29.80 24.65 25.40 Q24.90 21.00 25.25 17.55 Q25.60 14.10 26.10 11.20 Q27.50 11.20 29.30 11.20 Q31.20 11.20 33.20 11.10 Q35.20 11.00 37.15 10.90 Q39.10 10.80 40.60 10.60 Q41.30 10.50 42.10 10.00 Q42.90 9.50 43.55 8.80 Q44.20 8.10 44.65 7.45 Q45.10 6.80 45.10 6.40 Q45.10 5.00 43.60 5.00 Q38.10 5.00 32.60 5.40 Q27.10 5.80 21.60 5.80 Q17.40 5.80 14.40 5.65 Q11.40 5.50 9.25 5.35 Q7.10 5.20 5.60 5.10 Q4.10 5.00 3.00 5.00 Q2.10 5.00 1.05 6.10 Q0.00 7.20 0.00 8.00 Q0.00 9.30 0.60 10.55 Q1.20 11.80 2.40 11.80 Q3.40 11.80 4.35 11.70 Q5.30 11.60 6.20 11.60 Z M68.30 57.00 L68.30 40.00 Q68.30 39.20 68.40 38.15 Q68.50 37.10 68.80 36.30 Q70.20 35.90 73.55 35.55 Q76.90 35.20 80.90 35.00 Q84.90 34.80 88.85 34.65 Q92.80 34.50 95.50 34.50 L96.50 57.80 Q96.60 59.40 97.15 59.90 Q97.70 60.40 99.10 60.40 Q99.80 60.40 100.35 59.80 Q100.90 59.20 101.30 58.35 Q101.70 57.50 101.95 56.65 Q102.20 55.80 102.20 55.20 L102.40 35.50 Q102.40 34.30 103.40 34.30 Q103.90 34.30 104.30 34.40 Q104.70 34.50 105.00 34.50 Q106.20 34.50 106.80 32.95 Q107.40 31.40 107.40 30.50 Q107.40 29.50 106.95 29.25 Q106.50 29.00 105.70 29.00 Q104.90 29.00 104.05 29.05 Q103.20 29.10 102.40 29.20 Q102.40 27.70 102.45 25.65 Q102.50 23.60 102.60 21.45 Q102.70 19.30 102.90 17.20 Q103.10 15.10 103.40 13.30 Q103.70 11.70 104.10 10.70 Q104.50 9.70 104.80 9.05 Q105.10 8.40 105.35 7.95 Q105.60 7.50 105.60 7.10 Q105.60 5.70 103.60 5.70 Q102.70 5.70 101.30 5.95 Q99.90 6.20 98.55 6.65 Q97.20 7.10 96.20 7.70 Q95.20 8.30 95.20 9.00 Q95.20 10.40 95.50 13.30 Q95.80 16.20 95.80 19.70 Q95.80 22.30 95.75 24.80 Q95.70 27.30 95.60 29.30 L69.00 29.30 Q69.20 25.60 69.25 21.70 Q69.30 17.80 69.30 14.20 Q69.40 11.80 70.15 10.10 Q70.90 8.40 70.90 7.50 Q70.90 7.00 70.05 6.40 Q69.20 5.80 68.00 5.25 Q66.80 4.70 65.50 4.30 Q64.20 3.90 63.30 3.90 Q62.20 3.90 61.20 4.50 Q60.20 5.10 59.45 5.85 Q58.70 6.60 58.25 7.30 Q57.80 8.00 57.80 8.30 Q57.80 9.10 58.45 9.70 Q59.10 10.30 59.95 10.95 Q60.80 11.60 61.45 12.45 Q62.10 13.30 62.10 14.50 Q62.20 16.40 62.30 19.00 Q62.40 21.60 62.45 24.60 Q62.50 27.60 62.50 30.70 Q62.50 33.70 62.50 36.50 Q62.50 42.80 62.20 48.40 Q61.90 54.00 61.90 59.20 Q61.90 60.40 62.30 61.05 Q62.70 61.70 63.80 61.70 Q68.30 61.70 68.30 57.00 Z M155.10 29.70 L141.60 29.70 Q140.10 29.70 139.00 30.15 Q137.90 30.60 137.10 31.30 Q137.50 23.80 138.80 19.00 Q140.10 14.20 141.95 11.45 Q143.80 8.70 146.05 7.70 Q148.30 6.70 150.70 6.70 L156.60 6.70 Q158.50 6.70 158.50 4.50 Q158.50 2.80 157.00 2.15 Q155.50 1.50 151.30 1.50 Q147.10 1.50 143.15 3.25 Q139.20 5.00 136.20 9.15 Q133.20 13.30 131.35 20.05 Q129.50 26.80 129.50 36.80 Q129.50 39.60 129.70 42.70 Q129.90 45.80 130.70 48.85 Q131.50 51.90 133.05 54.65 Q134.60 57.40 137.30 59.50 Q140.00 61.60 144.00 62.85 Q148.00 64.10 153.70 64.10 Q157.50 64.10 159.00 63.30 Q160.50 62.50 160.50 61.70 Q160.50 60.40 159.75 60.00 Q159.00 59.60 156.80 59.60 Q146.50 59.60 141.80 53.55 Q137.10 47.50 137.10 35.50 Q140.10 35.40 143.95 35.35 Q147.80 35.30 152.30 34.90 Q152.80 34.90 153.55 34.40 Q154.30 33.90 155.10 33.20 Q155.90 32.50 156.45 31.85 Q157.00 31.20 157.00 30.90 Q157.00 29.70 155.10 29.70 Z M187.60 25.60 Q187.60 24.40 187.65 22.25 Q187.70 20.10 187.90 17.55 Q188.10 15.00 188.40 12.35 Q188.70 9.70 189.20 7.40 Q189.30 6.90 190.20 6.50 Q191.10 6.10 192.25 5.80 Q193.40 5.50 194.50 5.35 Q195.60 5.20 196.00 5.20 Q196.40 5.20 197.15 5.40 Q197.90 5.60 198.75 5.95 Q199.60 6.30 200.30 6.70 Q201.00 7.10 201.20 7.40 Q201.80 8.20 202.25 9.10 Q202.70 10.00 202.70 11.40 Q202.70 14.80 201.60 18.10 Q201.00 19.60 200.10 20.65 Q199.20 21.70 198.10 22.45 Q197.00 23.20 195.95 23.70 Q194.90 24.20 194.00 24.60 Q191.40 25.80 190.30 26.30 Q189.20 26.80 188.70 26.80 Q188.30 26.80 187.95 26.60 Q187.60 26.40 187.60 25.60 Z M188.70 0.50 L180.00 2.80 Q178.00 3.30 178.00 4.60 Q178.00 6.40 180.10 7.60 Q180.50 7.90 180.75 9.85 Q181.00 11.80 181.15 14.35 Q181.30 16.90 181.35 19.50 Q181.40 22.10 181.40 23.80 Q181.40 27.60 181.30 32.15 Q181.20 36.70 181.05 40.80 Q180.90 44.90 180.80 47.95 Q180.70 51.00 180.70 51.80 Q180.60 53.70 180.25 55.00 Q179.90 56.30 179.55 57.15 Q179.20 58.00 178.95 58.50 Q178.70 59.00 178.70 59.50 Q178.70 60.10 179.50 60.65 Q180.30 61.20 181.45 61.55 Q182.60 61.90 183.80 62.15 Q185.00 62.40 185.70 62.40 Q187.10 62.40 187.65 62.00 Q188.20 61.60 188.20 60.60 Q188.20 59.80 188.05 58.80 Q187.90 57.80 187.75 56.15 Q187.60 54.50 187.45 51.90 Q187.30 49.30 187.30 45.20 L187.30 42.50 Q187.30 40.10 187.40 37.65 Q187.50 35.20 187.70 33.20 Q190.70 33.80 195.35 36.40 Q200.00 39.00 205.30 42.50 Q210.60 46.00 216.05 50.00 Q221.50 54.00 226.15 57.30 Q230.80 60.60 234.20 62.80 Q237.60 65.00 238.70 65.00 Q239.30 65.00 240.45 64.25 Q241.60 63.50 242.75 62.50 Q243.90 61.50 244.75 60.50 Q245.60 59.50 245.60 59.00 Q245.60 58.30 245.25 57.90 Q244.90 57.50 244.50 57.50 Q240.40 57.50 236.30 55.20 Q234.70 54.20 232.20 52.70 Q229.70 51.20 226.75 49.30 Q223.80 47.40 220.55 45.35 Q217.30 43.30 214.10 41.20 Q209.80 38.30 206.10 35.90 Q202.40 33.50 199.70 31.80 Q197.00 30.10 196.20 29.70 Q195.40 29.30 195.40 29.00 Q195.40 28.70 195.90 28.45 Q196.40 28.20 198.80 27.40 Q200.60 26.80 202.70 25.75 Q204.80 24.70 206.65 23.00 Q208.50 21.30 209.70 18.75 Q210.90 16.20 210.90 12.60 Q210.90 10.30 209.50 8.05 Q208.10 5.80 205.70 4.00 Q203.30 2.20 200.05 1.10 Q196.80 0.00 193.00 0.00 Q191.40 0.00 190.50 0.15 Q189.60 0.30 188.70 0.50 Z M248.70 30.80 Q248.70 38.70 248.75 44.25 Q248.80 49.80 248.90 53.45 Q249.00 57.10 249.25 59.15 Q249.50 61.20 249.90 62.20 Q250.30 63.20 250.85 63.45 Q251.40 63.70 252.10 63.70 Q253.80 63.70 254.55 61.75 Q255.30 59.80 255.30 53.80 Q255.30 35.80 255.55 25.45 Q255.80 15.10 256.20 10.70 Q256.30 9.00 256.75 7.75 Q257.20 6.50 257.20 5.30 Q257.20 4.70 255.80 3.85 Q254.40 3.00 253.30 3.00 Q252.60 3.00 251.35 3.75 Q250.10 4.50 248.90 5.50 Q247.70 6.50 246.80 7.60 Q245.90 8.70 245.90 9.30 Q245.90 10.10 246.25 10.95 Q246.60 11.80 247.60 12.90 Q248.20 13.60 248.30 14.55 Q248.40 15.50 248.40 16.90 Q248.40 19.50 248.55 22.50 Q248.70 25.50 248.70 30.80 Z M298.20 24.30 L313.90 40.30 Q313.50 40.50 312.70 40.65 Q311.90 40.80 310.30 40.90 Q308.70 41.00 306.10 41.05 Q303.50 41.10 299.60 41.10 Q296.00 41.10 294.00 41.05 Q292.00 41.00 291.00 40.90 Q290.00 40.80 289.75 40.55 Q289.50 40.30 289.50 39.90 Q289.50 39.40 289.90 38.70 Q290.30 38.00 291.60 35.70 Z M292.40 45.70 L318.90 45.70 Q329.00 55.90 332.30 60.40 Q332.80 61.00 333.10 61.70 Q333.40 62.40 334.20 62.40 L337.20 62.40 Q337.80 62.40 338.60 61.90 Q339.40 61.40 340.20 60.65 Q341.00 59.90 341.55 59.15 Q342.10 58.40 342.10 58.00 Q342.10 57.10 341.70 56.75 Q341.30 56.40 340.65 56.20 Q340.00 56.00 339.10 55.70 Q338.20 55.40 337.20 54.50 Q331.90 49.80 327.45 45.70 Q323.00 41.60 318.15 36.55 Q313.30 31.50 307.40 24.80 Q301.50 18.10 293.40 8.30 Q292.30 6.90 291.25 5.50 Q290.20 4.10 290.00 3.50 Q289.50 2.30 289.15 1.60 Q288.80 0.90 288.25 0.55 Q287.70 0.20 286.90 0.10 Q286.10 0.00 284.70 0.00 Q284.00 0.00 282.95 0.40 Q281.90 0.80 280.90 1.35 Q279.90 1.90 279.15 2.45 Q278.40 3.00 278.40 3.40 Q278.40 4.20 279.40 4.80 Q280.40 5.40 281.80 6.90 L290.00 15.20 Q293.40 18.60 293.40 20.60 Q293.40 21.50 292.40 23.75 Q291.40 26.00 289.80 29.00 Q288.20 32.00 286.10 35.55 Q284.00 39.10 281.80 42.60 Q279.60 46.10 277.40 49.30 Q275.20 52.50 273.40 54.80 Q272.10 56.50 271.10 57.50 Q270.10 58.50 270.10 59.40 Q270.10 60.50 271.80 61.10 Q273.50 61.70 276.30 61.70 Q277.70 61.70 277.80 60.70 Q277.90 59.70 278.40 58.80 L283.40 50.10 Q284.80 47.60 286.70 46.65 Q288.60 45.70 292.40 45.70 Z"/>
  </g>
</svg>
